# xmcd
#
# Track frame offsets:
#	150
#	18092
#	35538
#	48113
#	61870
#	77546
#	90812
#	107463
#	125819
#	139536
#	151479
#	164275
#
# Disc length: 2359 seconds
#
# Revision: 1
# Processed by: cddbd v1.5.2PL0 Copyright (c) Steve Scherf et al.
# Submitted via: EasyCDDAExtractor 16.0.1.1
#
DISCID=8109350c
DTITLE=Gary Campbell
DYEAR=2005
DGENRE=Country
TTITLE0=Dance 'til Dawn
TTITLE1=Mandatory Overtime
TTITLE2=Down Into Muddy Water
TTITLE3=You're  The Reason Why
TTITLE4=If I Was A Vcr
TTITLE5=I Keep Forgettin'
TTITLE6=Aisle Four
TTITLE7=A Heart You'll Have To Face
TTITLE8=Baby It's You
TTITLE9=We Can't Get Along
TTITLE10=Wait Problem
TTITLE11=Lovin' It
EXTD=
EXTT0=
EXTT1=
EXTT2=
EXTT3=
EXTT4=
EXTT5=
EXTT6=
EXTT7=
EXTT8=
EXTT9=
EXTT10=
EXTT11=
PLAYORDER=
